# xmcd
#
# Track frame offsets: 
#        183
#        21458
#        39758
#        54833
#        75308
#        90683
#        105383
#        119258
#        137783
#        157808
#        176633
#        194483
#        212033
#        227978
#        250658
#
# Disc length: 3558 seconds
#
# Revision: 2
# Processed by: cddbd v1.5.2PL0 Copyright (c) Steve Scherf et al.
# Submitted via: ExactAudioCopy v0.99pb5
#
DISCID=b90de40f
DTITLE=Sacco and Mancetti  - The best of
DYEAR=1990
DGENRE=
TTITLE0=Rainbow´s end
TTITLE1=The boys got the rhythm
TTITLE2=Careful
TTITLE3=Sleepless nights
TTITLE4=Gooseberry
TTITLE5=The drum of the big indian
TTITLE6=Big potatoe
TTITLE7=Tomorrow
TTITLE8=Why to try
TTITLE9=Little luck
TTITLE10=My love
TTITLE11=By and by
TTITLE12=Coca cola
TTITLE13=Livin´ in a river
TTITLE14=Blue
EXTD=
EXTT0=
EXTT1=
EXTT2=
EXTT3=
EXTT4=
EXTT5=
EXTT6=
EXTT7=
EXTT8=
EXTT9=
EXTT10=
EXTT11=
EXTT12=
EXTT13=
EXTT14=
PLAYORDER=
